<svg id="korea-map" width="480" height="600" viewBox="0 0 480 600" xmlns="http://www.w3.org/2000/svg">
  <g fill="#d9e3f8" stroke="#8fa8d6" stroke-width="2">

    <!-- 서울 -->
    <path id="seoul" d="M210 150 L225 145 L235 160 L220 170 Z"/>

    <!-- 인천 -->
    <path id="incheon" d="M180 150 L195 140 L205 155 L190 165 Z"/>

    <!-- 경기 -->
    <path id="gyeonggi" d="M190 120 L240 130 L250 170 L210 180 L180 160 Z"/>

    <!-- 강원 -->
    <path id="gangwon" d="M250 130 L300 120 L330 160 L310 200 L260 170 Z"/>

    <!-- 충북 -->
    <path id="chungbuk" d="M230 180 L260 170 L280 210 L250 230 L220 210 Z"/>

    <!-- 충남 -->
    <path id="chungnam" d="M180 160 L210 180 L200 220 L160 210 L150 170 Z"/>

    <!-- 세종 -->
    <circle id="sejong" cx="215" cy="190" r="10"/>

    <!-- 대전 -->
    <circle id="daejeon" cx="210" cy="220" r="12"/>

    <!-- 경북 -->
    <path id="gyeongbuk" d="M280 210 L330 200 L350 240 L320 270 L280 250 Z"/>

    <!-- 경남 -->
    <path id="gyeongnam" d="M280 250 L320 270 L310 310 L260 300 L240 260 Z"/>

    <!-- 대구 -->
    <circle id="daegu" cx="290" cy="240" r="12"/>

    <!-- 전북 -->
    <path id="jeonbuk" d="M200 220 L230 210 L240 260 L200 270 L180 240 Z"/>

    <!-- 전남 -->
    <path id="jeonnam" d="M200 270 L240 260 L230 300 L190 310 L170 280 Z"/>

    <!-- 광주 -->
    <circle id="gwangju" cx="190" cy="290" r="12"/>

    <!-- 부산 -->
    <circle id="busan" cx="310" cy="300" r="12"/>

    <!-- 울산 -->
    <circle id="ulsan" cx="320" cy="280" r="10"/>

    <!-- 제주 -->
    <ellipse id="jeju" cx="200" cy="350" rx="40" ry="18"/>

  </g>
</svg>
